<svg xmlns="http://www.w3.org/2000/svg" width="216" height="30" viewBox="0 0 216 30" role="img" aria-labelledby="logo-title logo-description" shape-rendering="geometricPrecision">
  <title id="logo-title">Alex Oxytocin</title>
  <desc id="logo-description">Фирменный геометрический логотип с разомкнутыми буквами</desc>
  <g fill="none" stroke="#25e3d3" stroke-width="3.2" stroke-linecap="square" stroke-linejoin="miter">
    <path d="M4.1 19.9 10.6 10.1l6.5 9.8" />
    <path d="M24.6 10.1v9.8h10.3" />
    <path d="M52.7 10.1H42.6v9.8h10.1M42.6 15h8.6" />
    <path d="m60.35 10.1 12.1 9.8m0-9.8-12.1 9.8" />
  </g>
  <g fill="none" stroke="#8668ff" stroke-width="3.2" stroke-linecap="square" stroke-linejoin="miter">
    <rect x="85.35" y="10.1" width="13.8" height="9.8" rx="4.4" />
    <path d="m106.1 10.1 12.8 9.8m0-9.8-12.8 9.8" />
    <path d="m122.25 10.1 5.1 4.9 5.1-4.9M127.35 15v4.9" />
    <path d="M131.35 10.1H145m-6.8 0v9.8" />
    <rect x="152.6" y="10.1" width="13.05" height="9.8" rx="4.4" />
    <path d="M185.2 11.3c-1.4-1.1-3-1.5-5-1.5-4 0-6.85 2.1-6.85 5.2s2.85 5.2 6.85 5.2c2 0 3.6-.4 5-1.5" stroke-linecap="round" stroke-linejoin="round" />
    <path d="M192.75 10.1v9.8" />
    <path d="M200.1 19.9v-9.8l11.55 9.8v-9.8" />
  </g>
</svg>
